<svg viewBox="0 0 388.2 338.0085" width="5000px" height="4353.5355973151445px" xmlns="http://www.w3.org/2000/svg" xmlns:xlink="http://www.w3.org/1999/xlink" preserveAspectRatio="none"><defs></defs><style>.companyName {fill:#F1EC40;fill-opacity:1;}.icon1 {fill:#F1EC40;fill-opacity:1;}.icon2 {fill:#555555;fill-opacity:1;}.icon3 {fill:#AAAAAA;fill-opacity:1;}.text {fill:#CCCCCC;fill-opacity:1;}</style><g opacity="1" transform="rotate(0 29.636900000000026 313.8517)">
<svg width="328.9262" height="24.1568" x="29.636900000000026" y="313.8517" version="1.1" preserveAspectRatio="none" viewBox="3.24 -28 493.43999999999994 36.239999999999995">
  <g transform="matrix(1 0 0 1 0 0)" class="text"><path d="M6.24-9.44L6.24 0L3.24 0L3.24-26.48L15.16-26.48Q19.36-26.48 21.84-24.16L21.84-24.16Q24.28-21.84 24.28-17.96L24.28-17.96Q24.28-14.04 21.82-11.74Q19.36-9.44 15.16-9.44L15.16-9.44L6.24-9.44ZM14.96-23.64L6.24-23.64L6.24-12.24L14.96-12.24Q18.08-12.24 19.68-13.76Q21.28-15.28 21.28-17.94Q21.28-20.60 19.68-22.12Q18.08-23.64 14.96-23.64L14.96-23.64Z M40.16-20.32L40.16-20.32Q44.64-20.32 47.44-17.32L47.44-17.32Q50.08-14.44 50.08-10L50.08-10Q50.08-5.56 47.44-2.68L47.44-2.68Q44.64 0.32 40.16 0.32L40.16 0.32Q35.68 0.32 32.88-2.68L32.88-2.68Q30.24-5.56 30.24-10L30.24-10Q30.24-14.44 32.88-17.32L32.88-17.32Q35.68-20.32 40.16-20.32ZM40.16-2.40L40.16-2.40Q43.40-2.40 45.28-4.64L45.28-4.64Q47.08-6.76 47.08-10L47.08-10Q47.08-13.24 45.28-15.36L45.28-15.36Q43.40-17.60 40.16-17.60L40.16-17.60Q36.92-17.60 35.04-15.36L35.04-15.36Q33.24-13.24 33.24-10L33.24-10Q33.24-6.76 35.04-4.64L35.04-4.64Q36.92-2.40 40.16-2.40Z M75.36 0L70.36-15.96L65.36 0L61.92 0L55.64-20L58.84-20L63.64-3.72L68.72-20L72-20L77.08-3.72L81.88-20L85.08-20L78.80 0L75.36 0Z M100.80-2.40L100.80-2.40Q104.84-2.40 106.60-5.76L106.60-5.76L109.88-5.76Q108.84-3.04 106.58-1.36Q104.32 0.32 100.76 0.32L100.76 0.32Q96.24 0.32 93.40-2.68L93.40-2.68Q90.64-5.60 90.64-10L90.64-10Q90.64-14.44 93.28-17.32L93.28-17.32Q96.08-20.32 100.56-20.32L100.56-20.32Q105.04-20.32 107.84-17.32L107.84-17.32Q110.48-14.44 110.48-10L110.48-10L110.48-8.80L93.72-8.80Q94.04-6.04 95.92-4.24L95.92-4.24Q97.84-2.40 100.80-2.40ZM100.56-17.60L100.56-17.60Q97.80-17.60 95.92-15.88L95.92-15.88Q94.16-14.24 93.76-11.60L93.76-11.60L107.36-11.60Q106.96-14.24 105.20-15.88L105.20-15.88Q103.32-17.60 100.56-17.60Z M128.52-20.32L128.72-20.32L128.72-17.32L128.36-17.32Q125.12-17.32 123.08-14.72L123.08-14.72Q121.16-12.24 121.16-8.80L121.16-8.80L121.16 0L118.16 0L118.16-20L121.16-20L121.16-15.08Q122.12-18.20 125.32-19.68L125.32-19.68Q126.64-20.32 128.52-20.32L128.52-20.32Z M144.36-2.40L144.36-2.40Q148.40-2.40 150.16-5.76L150.16-5.76L153.44-5.76Q152.40-3.04 150.14-1.36Q147.88 0.32 144.32 0.32L144.32 0.32Q139.80 0.32 136.96-2.68L136.96-2.68Q134.20-5.60 134.20-10L134.20-10Q134.20-14.44 136.84-17.32L136.84-17.32Q139.64-20.32 144.12-20.32L144.12-20.32Q148.60-20.32 151.40-17.32L151.40-17.32Q154.04-14.44 154.04-10L154.04-10L154.04-8.80L137.28-8.80Q137.60-6.04 139.48-4.24L139.48-4.24Q141.40-2.40 144.36-2.40ZM144.12-17.60L144.12-17.60Q141.36-17.60 139.48-15.88L139.48-15.88Q137.72-14.24 137.32-11.60L137.32-11.60L150.92-11.60Q150.52-14.24 148.76-15.88L148.76-15.88Q146.88-17.60 144.12-17.60Z M177.32 0L177.32-3.20Q174.92 0.32 170.16 0.32L170.16 0.32Q165.84 0.32 163.12-2.68L163.12-2.68Q160.48-5.64 160.48-10L160.48-10Q160.48-14.36 163.12-17.32L163.12-17.32Q165.84-20.32 170.36-20.32Q174.88-20.32 177.32-16.76L177.32-16.76L177.32-28L180.32-28L180.32 0L177.32 0ZM170.56-2.40L170.56-2.40Q173.80-2.40 175.68-4.64L175.68-4.64Q177.48-6.76 177.48-10L177.48-10Q177.48-13.24 175.68-15.36L175.68-15.36Q173.80-17.60 170.56-17.60L170.56-17.60Q167.36-17.60 165.36-15.36L165.36-15.36Q163.48-13.24 163.48-10L163.48-10Q163.48-6.76 165.36-4.64L165.36-4.64Q167.36-2.40 170.56-2.40Z M205.04-28L205.04-16.76Q207.48-20.32 212.20-20.32L212.20-20.32Q216.52-20.32 219.20-17.32L219.20-17.32Q221.88-14.36 221.88-10L221.88-10Q221.88-5.64 219.20-2.68L219.20-2.68Q216.52 0.32 211.98 0.32Q207.44 0.32 205.04-3.20L205.04-3.20L205.04 0L202.04 0L202.04-28L205.04-28ZM211.80-2.40L211.80-2.40Q215.00-2.40 217.00-4.64L217.00-4.64Q218.88-6.76 218.88-10L218.88-10Q218.88-13.24 217.00-15.36L217.00-15.36Q215.00-17.60 211.80-17.60L211.80-17.60Q208.56-17.60 206.68-15.36L206.68-15.36Q204.88-13.24 204.88-10L204.88-10Q204.88-6.76 206.68-4.64L206.68-4.64Q208.56-2.40 211.80-2.40Z M246.68-20L234.84 7.92L231.60 7.92L235.24-0.28L227.08-20L230.40-20L236.84-3.60L243.40-20L246.68-20Z M281.52-16.80L281.52-16.80L281.52-20L284.52-20L284.52-0.60Q284.52 3.72 282.06 5.98Q279.60 8.24 275.44 8.24Q271.28 8.24 268.94 6.64Q266.60 5.04 265.76 2.40L265.76 2.40L269.08 2.40Q270.36 5.52 274.92 5.52L274.92 5.52Q278.40 5.52 279.96 3.92Q281.52 2.32 281.52-0.80L281.52-0.80L281.52-3.56Q279.08 0 274.36 0L274.36 0Q270.04 0 267.32-2.96L267.32-2.96Q264.68-5.84 264.68-10.16L264.68-10.16Q264.68-14.48 267.32-17.36L267.32-17.36Q270.04-20.32 274.58-20.32Q279.12-20.32 281.52-16.80ZM274.76-2.72L274.76-2.72Q276.40-2.72 277.68-3.30Q278.96-3.88 279.88-4.88L279.88-4.88Q281.68-6.96 281.68-10.16L281.68-10.16Q281.68-13.36 279.88-15.44L279.88-15.44Q277.92-17.60 274.76-17.60L274.76-17.60Q271.52-17.60 269.56-15.44L269.56-15.44Q267.68-13.32 267.68-10.16L267.68-10.16Q267.68-7 269.56-4.88L269.56-4.88Q271.52-2.72 274.76-2.72Z M302.40-20.32L302.40-20.32Q306.88-20.32 309.68-17.32L309.68-17.32Q312.32-14.44 312.32-10L312.32-10Q312.32-5.56 309.68-2.68L309.68-2.68Q306.88 0.32 302.40 0.32L302.40 0.32Q297.92 0.32 295.12-2.68L295.12-2.68Q292.48-5.56 292.48-10L292.48-10Q292.48-14.44 295.12-17.32L295.12-17.32Q297.92-20.32 302.40-20.32ZM302.40-2.40L302.40-2.40Q305.64-2.40 307.52-4.64L307.52-4.64Q309.32-6.76 309.32-10L309.32-10Q309.32-13.24 307.52-15.36L307.52-15.36Q305.64-17.60 302.40-17.60L302.40-17.60Q299.16-17.60 297.28-15.36L297.28-15.36Q295.48-13.24 295.48-10L295.48-10Q295.48-6.76 297.28-4.64L297.28-4.64Q299.16-2.40 302.40-2.40Z M328.96-20.32L328.96-20.32Q333.44-20.32 336.24-17.32L336.24-17.32Q338.88-14.44 338.88-10L338.88-10Q338.88-5.56 336.24-2.68L336.24-2.68Q333.44 0.32 328.96 0.32L328.96 0.32Q324.48 0.32 321.68-2.68L321.68-2.68Q319.04-5.56 319.04-10L319.04-10Q319.04-14.44 321.68-17.32L321.68-17.32Q324.48-20.32 328.96-20.32ZM328.96-2.40L328.96-2.40Q332.20-2.40 334.08-4.64L334.08-4.64Q335.88-6.76 335.88-10L335.88-10Q335.88-13.24 334.08-15.36L334.08-15.36Q332.20-17.60 328.96-17.60L328.96-17.60Q325.72-17.60 323.84-15.36L323.84-15.36Q322.04-13.24 322.04-10L322.04-10Q322.04-6.76 323.84-4.64L323.84-4.64Q325.72-2.40 328.96-2.40Z M362.44 0L362.44-3.20Q360.04 0.32 355.28 0.32L355.28 0.32Q350.96 0.32 348.24-2.68L348.24-2.68Q345.60-5.64 345.60-10L345.60-10Q345.60-14.36 348.24-17.32L348.24-17.32Q350.96-20.32 355.48-20.32Q360-20.32 362.44-16.76L362.44-16.76L362.44-28L365.44-28L365.44 0L362.44 0ZM355.68-2.40L355.68-2.40Q358.92-2.40 360.80-4.64L360.80-4.64Q362.60-6.76 362.60-10L362.60-10Q362.60-13.24 360.80-15.36L360.80-15.36Q358.92-17.60 355.68-17.60L355.68-17.60Q352.48-17.60 350.48-15.36L350.48-15.36Q348.60-13.24 348.60-10L348.60-10Q348.60-6.76 350.48-4.64L350.48-4.64Q352.48-2.40 355.68-2.40Z M387.16 0L387.16-20L390.16-20L390.16 0L387.16 0ZM387.04-27.28L390.28-27.28L390.28-23.36L387.04-23.36L387.04-27.28Z M414.96 0L414.96-3.20Q412.56 0.32 407.80 0.32L407.80 0.32Q403.48 0.32 400.76-2.68L400.76-2.68Q398.12-5.64 398.12-10L398.12-10Q398.12-14.36 400.76-17.32L400.76-17.32Q403.48-20.32 408-20.32Q412.52-20.32 414.96-16.76L414.96-16.76L414.96-28L417.96-28L417.96 0L414.96 0ZM408.20-2.40L408.20-2.40Q411.44-2.40 413.32-4.64L413.32-4.64Q415.12-6.76 415.12-10L415.12-10Q415.12-13.24 413.32-15.36L413.32-15.36Q411.44-17.60 408.20-17.60L408.20-17.60Q405-17.60 403-15.36L403-15.36Q401.12-13.24 401.12-10L401.12-10Q401.12-6.76 403-4.64L403-4.64Q405-2.40 408.20-2.40Z M436.08-2.40L436.08-2.40Q440.12-2.40 441.88-5.76L441.88-5.76L445.16-5.76Q444.12-3.04 441.86-1.36Q439.60 0.32 436.04 0.32L436.04 0.32Q431.52 0.32 428.68-2.68L428.68-2.68Q425.92-5.60 425.92-10L425.92-10Q425.92-14.44 428.56-17.32L428.56-17.32Q431.36-20.32 435.84-20.32L435.84-20.32Q440.32-20.32 443.12-17.32L443.12-17.32Q445.76-14.44 445.76-10L445.76-10L445.76-8.80L429-8.80Q429.32-6.04 431.20-4.24L431.20-4.24Q433.12-2.40 436.08-2.40ZM435.84-17.60L435.84-17.60Q433.08-17.60 431.20-15.88L431.20-15.88Q429.44-14.24 429.04-11.60L429.04-11.60L442.64-11.60Q442.24-14.24 440.48-15.88L440.48-15.88Q438.60-17.60 435.84-17.60Z M469.04 0L469.04-3.20Q466.64 0.32 461.88 0.32L461.88 0.32Q457.56 0.32 454.84-2.68L454.84-2.68Q452.20-5.64 452.20-10L452.20-10Q452.20-14.36 454.84-17.32L454.84-17.32Q457.56-20.32 462.08-20.32Q466.60-20.32 469.04-16.76L469.04-16.76L469.04-20L472.04-20L472.04 0L469.04 0ZM462.28-2.40L462.28-2.40Q465.52-2.40 467.40-4.64L467.40-4.64Q469.20-6.76 469.20-10L469.20-10Q469.20-13.24 467.40-15.36L467.40-15.36Q465.52-17.60 462.28-17.60L462.28-17.60Q459.08-17.60 457.08-15.36L457.08-15.36Q455.20-13.24 455.20-10L455.20-10Q455.20-6.76 457.08-4.64L457.08-4.64Q459.08-2.40 462.28-2.40Z M496.04-14.64L493.00-14.64Q492.60-17.76 487.98-17.76Q483.36-17.76 483.36-14.88L483.36-14.88Q483.36-13.68 484.34-13.06Q485.32-12.44 486.80-12.04Q488.28-11.64 490.02-11.30Q491.76-10.96 493.24-10.34Q494.72-9.72 495.70-8.64Q496.68-7.56 496.68-5.68L496.68-5.68Q496.68-2.76 494.48-1.22Q492.28 0.32 488.52 0.32L488.52 0.32Q484.52 0.32 482.16-1.68L482.16-1.68Q480.00-3.44 479.84-6.28L479.84-6.28L482.96-6.28Q483.24-3.52 486.08-2.56L486.08-2.56Q487.12-2.24 488.14-2.24Q489.16-2.24 490.04-2.36Q490.92-2.48 491.76-2.80L491.76-2.80Q493.68-3.56 493.68-5.40L493.68-5.40Q493.68-6.64 492.70-7.30Q491.72-7.96 490.24-8.38Q488.76-8.80 487.02-9.14Q485.28-9.48 483.80-10.08Q482.32-10.68 481.34-11.72Q480.36-12.76 480.36-14.60L480.36-14.60Q480.36-17.32 482.34-18.82Q484.32-20.32 488.20-20.32L488.20-20.32Q491.88-20.32 494.00-18.56L494.00-18.56Q495.76-17.08 496.04-14.64L496.04-14.64Z"></path></g>
</svg>
</g><g opacity="1" transform="rotate(0 0 225.07029999999997)">
<svg width="388.2" height="61.9405" x="0" y="225.07029999999997" version="1.1" preserveAspectRatio="none" viewBox="2.6172 -28.3984 180.4297 28.7891">
  <g transform="matrix(1 0 0 1 0 0)" class="companyName"><path d="M26.04-20.88L26.04-7.13Q26.04-5.16 25.32-3.80Q24.61-2.44 23.54-1.59Q22.48-0.74 21.23-0.37Q19.98 0 18.91 0L18.91 0L2.62 0L2.62-5.08L18.91-5.08Q19.94-5.08 20.44-5.61Q20.94-6.13 20.94-7.13L20.94-7.13L20.94-11.45L2.62-11.45L2.62-16.56L20.94-16.56L20.94-20.84Q20.94-22.93 18.91-22.93L18.91-22.93L2.62-22.93L2.62-28.01L18.91-28.01Q20.21-28.01 21.25-27.68Q22.29-27.34 23.08-26.79Q23.87-26.23 24.43-25.51Q25-24.79 25.35-23.99Q25.70-23.20 25.87-22.39Q26.04-21.58 26.04-20.88L26.04-20.88Z M56.60-28.01L56.60 0L51.48 0L51.48-11.45L33.44-11.45Q32.89-11.45 32.42-11.65Q31.95-11.86 31.61-12.20Q31.27-12.54 31.07-13.01Q30.88-13.48 30.88-14.00L30.88-14.00L30.88-28.01L35.96-28.01L35.96-16.56L51.48-16.56L51.48-28.01L56.60-28.01Z M89.57-8.24L89.57-8.24Q89.57-6.74 89.19-5.54Q88.81-4.34 88.18-3.42Q87.56-2.50 86.72-1.86Q85.88-1.21 84.98-0.80Q84.08-0.39 83.15-0.20Q82.23 0 81.41 0L81.41 0L61.82 0L61.82-5.08L81.41-5.08Q82.87-5.08 83.68-5.94Q84.49-6.80 84.49-8.24L84.49-8.24Q84.49-8.95 84.28-9.53Q84.06-10.12 83.66-10.55Q83.26-10.98 82.69-11.21Q82.11-11.45 81.41-11.45L81.41-11.45L69.73-11.45Q68.50-11.45 67.07-11.88Q65.64-12.32 64.42-13.30Q63.20-14.28 62.39-15.86Q61.58-17.44 61.58-19.73L61.58-19.73Q61.58-22.01 62.39-23.58Q63.20-25.16 64.42-26.14Q65.64-27.13 67.07-27.57Q68.50-28.01 69.73-28.01L69.73-28.01L87.01-28.01L87.01-22.93L69.73-22.93Q68.28-22.93 67.47-22.05Q66.66-21.17 66.66-19.73L66.66-19.73Q66.66-18.26 67.47-17.41Q68.28-16.56 69.73-16.56L69.73-16.56L81.41-16.56L81.45-16.56Q82.27-16.54 83.18-16.34Q84.10-16.13 85.01-15.70Q85.92-15.27 86.74-14.62Q87.56-13.96 88.19-13.05Q88.83-12.13 89.20-10.94Q89.57-9.75 89.57-8.24Z M123.18-16.68L123.18-11.33Q123.18-8.77 122.30-6.62Q121.43-4.47 119.86-2.91Q118.30-1.35 116.16-0.48Q114.02 0.39 111.50 0.39L111.50 0.39L104.63 0.39Q102.11 0.39 99.96-0.48Q97.81-1.35 96.25-2.91Q94.69-4.47 93.80-6.62Q92.91-8.77 92.91-11.33L92.91-11.33L92.91-16.68Q92.91-19.22 93.80-21.38Q94.69-23.54 96.25-25.09Q97.81-26.64 99.96-27.52Q102.11-28.40 104.63-28.40L104.63-28.40L111.50-28.40Q114.02-28.40 116.16-27.52Q118.30-26.64 119.86-25.09Q121.43-23.54 122.30-21.38Q123.18-19.22 123.18-16.68L123.18-16.68ZM118.11-11.33L118.11-16.68Q118.11-18.18 117.63-19.40Q117.15-20.63 116.28-21.49Q115.41-22.36 114.19-22.84Q112.97-23.32 111.50-23.32L111.50-23.32L104.63-23.32Q103.14-23.32 101.92-22.84Q100.70-22.36 99.82-21.49Q98.95-20.63 98.47-19.40Q97.99-18.18 97.99-16.68L97.99-16.68L97.99-11.33Q97.99-9.82 98.47-8.60Q98.95-7.38 99.82-6.51Q100.70-5.64 101.92-5.17Q103.14-4.69 104.63-4.69L104.63-4.69L111.46-4.69Q112.95-4.69 114.17-5.17Q115.39-5.64 116.27-6.51Q117.15-7.38 117.63-8.60Q118.11-9.82 118.11-11.33L118.11-11.33Z M151.37-16.56L151.37-11.45L135.31-11.45L135.31-16.56L151.37-16.56ZM153.63-28.01L153.63-22.93L133.28-22.93L133.28 0L128.20 0L128.20-25.45Q128.20-25.98 128.40-26.45Q128.59-26.91 128.94-27.27Q129.28-27.62 129.75-27.81Q130.21-28.01 130.76-28.01L130.76-28.01L153.63-28.01Z M183.05-28.01L183.05-22.93L171.86-22.93L171.86 0L166.78 0L166.78-22.93L155.57-22.93L155.57-28.01L183.05-28.01Z"></path></g>
</svg>
</g><g opacity="1" transform="rotate(0 97.05010000000004 0)">
<svg width="194.1" height="194.1" x="97.05010000000004" y="0" version="1.1" preserveAspectRatio="none" viewBox="10 10 80 80">
  <g transform="matrix(1 0 0 1 0 0)" class="icon1"><path d="M83.333,10H16.667C13.001,10,10,13.001,10,16.667v66.666C10,86.999,13.001,90,16.667,90h66.666  C86.999,90,90,86.999,90,83.333V16.667C90,13.001,86.999,10,83.333,10z M80,66.667L50,83.333l-16.667-9.258V41.179L50,31.921  l16.667,9.258v17.643L50,68.079l-3.333-1.852V49.023L50,47.175l3.333,1.849v9.577L60,54.899v-9.799l-10-5.557l-10,5.557v25.049  l10,5.557l23.333-12.962V37.256L50,24.294L26.667,37.256v33.115L20,66.667V33.333l30-16.666l30,16.666V66.667z"></path></g>
</svg>
</g></svg>